ffmpeg version 3.4.8-0ubuntu0.2 Copyright (c) 2000-2020 the FFmpeg developers
  built with gcc 7 (Ubuntu 7.5.0-3ubuntu1~18.04)
  configuration: --prefix=/usr --extra-version=0ubuntu0.2 --toolchain=hardened --libdir=/usr/lib/x86_64-linux-gnu --incdir=/usr/include/x86_64-linux-gnu --enable-gpl --disable-stripping --enable-avresample --enable-avisynth --enable-gnutls --enable-ladspa --enable-libass --enable-libbluray --enable-libbs2b --enable-libcaca --enable-libcdio --enable-libflite --enable-libfontconfig --enable-libfreetype --enable-libfribidi --enable-libgme --enable-libgsm --enable-libmp3lame --enable-libmysofa --enable-libopenjpeg --enable-libopenmpt --enable-libopus --enable-libpulse --enable-librubberband --enable-librsvg --enable-libshine --enable-libsnappy --enable-libsoxr --enable-libspeex --enable-libssh --enable-libtheora --enable-libtwolame --enable-libvorbis --enable-libvpx --enable-libwavpack --enable-libwebp --enable-libx265 --enable-libxml2 --enable-libxvid --enable-libzmq --enable-libzvbi --enable-omx --enable-openal --enable-opengl --enable-sdl2 --enable-libdc1394 --enable-libdrm --enable-libiec61883 --enable-chromaprint --enable-frei0r --enable-libopencv --enable-libx264 --enable-shared
  libavutil      55. 78.100 / 55. 78.100
  libavcodec     57.107.100 / 57.107.100
  libavformat    57. 83.100 / 57. 83.100
  libavdevice    57. 10.100 / 57. 10.100
  libavfilter     6.107.100 /  6.107.100
  libavresample   3.  7.  0 /  3.  7.  0
  libswscale      4.  8.100 /  4.  8.100
  libswresample   2.  9.100 /  2.  9.100
  libpostproc    54.  7.100 / 54.  7.100
[rawvideo @ 0x55f95c6a0a20] Estimating duration from bitrate, this may be inaccurate
Input #0, rawvideo, from '../../SVC-Encoder-20220109T061506Z-001/SVC-Encoder/Dataset/RollerCoaster/ERP_8x8/tile_yuv/Tile_31_480x240.yuv':
  Duration: 00:00:10.00, start: 0.000000, bitrate: 41472 kb/s
    Stream #0:0: Video: rawvideo (I420 / 0x30323449), yuv420p, 480x240, 41472 kb/s, 30 tbr, 30 tbn, 30 tbc
Stream mapping:
  Stream #0:0 -> #0:0 (rawvideo (native) -> h264 (libx264))
Press [q] to stop, [?] for help
[libx264 @ 0x55f95c6adc60] using cpu capabilities: MMX2 SSE2Fast LZCNT SSSE3 SSE4.2 AVX
[libx264 @ 0x55f95c6adc60] profile High, level 2.1
Output #0, rawvideo, to 'RollerCoaster_Tile_31_480x240_x264_QP_24.h264':
  Metadata:
    encoder         : Lavf57.83.100
    Stream #0:0: Video: h264 (libx264), yuv420p, 480x240, q=-1--1, 30 fps, 30 tbn, 30 tbc
    Metadata:
      encoder         : Lavc57.107.100 libx264
    Side data:
      cpb: bitrate max/min/avg: 0/0/0 buffer size: 0 vbv_delay: -1
frame=  131 fps=0.0 q=30.0 PSNR=Y:nan U:nan V:nan *:nan size=     132kB time=00:00:02.93 bitrate= 369.3kbits/s speed=5.86x    frame=  252 fps=252 q=30.0 PSNR=Y:nan U:nan V:nan *:nan size=     256kB time=00:00:06.96 bitrate= 301.0kbits/s speed=6.96x    frame=  300 fps=224 q=30.0 LPSNR=Y:inf U:inf V:inf *:inf size=     391kB time=00:00:09.93 bitrate= 322.1kbits/s speed=7.43x    
video:391kB audio:0kB subtitle:0kB other streams:0kB global headers:0kB muxing overhead: 0.000000%
[libx264 @ 0x55f95c6adc60] frame I:2     Avg QP:21.61  size: 20970  PSNR Mean Y:44.40 U:49.58 V:52.89 Avg:45.70 Global:45.62
[libx264 @ 0x55f95c6adc60] frame P:76    Avg QP:23.59  size:  3600  PSNR Mean Y:40.69 U:48.68 V:51.05 Avg:42.19 Global:42.12
[libx264 @ 0x55f95c6adc60] frame B:222   Avg QP:29.43  size:   380  PSNR Mean Y:40.34 U:48.52 V:50.99 Avg:41.85 Global:41.80
[libx264 @ 0x55f95c6adc60] consecutive B-frames:  1.0%  0.7%  1.0% 97.3%
[libx264 @ 0x55f95c6adc60] mb I  I16..4:  0.1% 89.0% 10.9%
[libx264 @ 0x55f95c6adc60] mb P  I16..4:  0.0%  0.9%  0.4%  P16..4: 43.1% 25.5% 17.8%  0.0%  0.0%    skip:12.3%
[libx264 @ 0x55f95c6adc60] mb B  I16..4:  0.0%  0.0%  0.0%  B16..8: 52.3%  3.5%  0.4%  direct: 0.2%  skip:43.5%  L0:35.8% L1:59.5% BI: 4.7%
[libx264 @ 0x55f95c6adc60] 8x8 transform intra:82.9% inter:63.3%
[libx264 @ 0x55f95c6adc60] coded y,uvDC,uvAC intra: 95.8% 90.6% 36.4% inter: 12.7% 6.9% 0.0%
[libx264 @ 0x55f95c6adc60] i16 v,h,dc,p: 27%  0%  0% 73%
[libx264 @ 0x55f95c6adc60] i8 v,h,dc,ddl,ddr,vr,hd,vl,hu: 11% 18% 12%  7%  9%  9% 11%  7% 15%
[libx264 @ 0x55f95c6adc60] i4 v,h,dc,ddl,ddr,vr,hd,vl,hu: 15% 17% 15%  7%  9% 11% 10%  6% 10%
[libx264 @ 0x55f95c6adc60] i8c dc,h,v,p: 41% 24% 18% 17%
[libx264 @ 0x55f95c6adc60] Weighted P-Frames: Y:0.0% UV:0.0%
[libx264 @ 0x55f95c6adc60] ref P L0: 63.3% 21.1% 13.8%  1.8%
[libx264 @ 0x55f95c6adc60] ref B L0: 91.4%  7.8%  0.7%
[libx264 @ 0x55f95c6adc60] ref B L1: 92.3%  7.7%
[libx264 @ 0x55f95c6adc60] PSNR Mean Y:40.457 U:48.570 V:51.022 Avg:41.961 Global:41.896 kb/s:319.91
